<?xml version="1.0" encoding="UTF-8" standalone="no"?>
<svg
   inkscape:version="1.1.1 (3bf5ae0d25, 2021-09-20, custom)"
   sodipodi:docname="logo.svg"
   id="svg301"
   version="1.1"
   viewBox="0 0 35.995041 13.930614"
   height="13.930614mm"
   width="35.995041mm"
   xmlns:inkscape="http://www.inkscape.org/namespaces/inkscape"
   xmlns:sodipodi="http://sodipodi.sourceforge.net/DTD/sodipodi-0.dtd"
   xmlns="http://www.w3.org/2000/svg"
   xmlns:svg="http://www.w3.org/2000/svg"
   xmlns:rdf="http://www.w3.org/1999/02/22-rdf-syntax-ns#"
   xmlns:cc="http://creativecommons.org/ns#"
   xmlns:dc="http://purl.org/dc/elements/1.1/">
  <defs
     id="defs295" />
  <sodipodi:namedview
     inkscape:window-maximized="1"
     inkscape:window-y="21"
     inkscape:window-x="0"
     inkscape:window-height="1000"
     inkscape:window-width="1920"
     showborder="true"
     showgrid="false"
     inkscape:document-rotation="0"
     inkscape:current-layer="layer1"
     inkscape:document-units="px"
     inkscape:cy="97.142857"
     inkscape:cx="230.35714"
     inkscape:zoom="1.4"
     inkscape:pageshadow="2"
     inkscape:pageopacity="0.0"
     borderopacity="1.0"
     bordercolor="#666666"
     pagecolor="#ffffff"
     id="base"
     inkscape:pagecheckerboard="0"
     fit-margin-top="0"
     fit-margin-left="0"
     fit-margin-right="0"
     fit-margin-bottom="0" />
  <metadata
     id="metadata298">
    <rdf:RDF>
      <cc:Work
         rdf:about="">
        <dc:format>image/svg+xml</dc:format>
        <dc:type
           rdf:resource="http://purl.org/dc/dcmitype/StillImage" />
      </cc:Work>
    </rdf:RDF>
  </metadata>
  <g
     id="layer1"
     inkscape:groupmode="layer"
     inkscape:label="Layer 1"
     transform="translate(-292.66497,56.499511)">
    <g
       aria-label="Pb_inc."
       id="text2539"
       style="font-size:10.5833px;line-height:1.25;font-family:FreeMono;-inkscape-font-specification:FreeMono;letter-spacing:0px;word-spacing:0px;stroke-width:0.264583"
       transform="translate(-48.286747,-16.61771)">
      <path
         d="m 343.0603,-25.951187 1.39623,-0.390903 -0.80177,-2.863788 0.44841,-0.125543 c 1.07011,-0.299596 1.53647,-0.518089 1.88298,-0.889854 0.50306,-0.558473 0.669,-1.418208 0.42647,-2.284478 -0.24253,-0.866271 -0.80915,-1.476952 -1.57268,-1.691807 -0.49937,-0.134947 -1.03462,-0.08401 -2.02319,0.192762 l -1.86503,0.522153 z m 0.22067,-4.589767 -0.55924,-1.997517 0.4688,-0.131251 c 0.45862,-0.128398 0.67834,-0.167929 0.90662,-0.176897 0.43905,-0.002 0.78351,0.286193 0.91476,0.754997 0.10272,0.366891 0.0195,0.697906 -0.23035,0.943712 -0.18263,0.172025 -0.54259,0.338744 -1.09293,0.492822 z"
         style="font-weight:600;font-family:'URW Gothic';-inkscape-font-specification:'URW Gothic Semi-Bold';fill:#ff7f2a"
         id="path29621" />
      <path
         d="m 348.62481,-27.509081 1.24335,-0.3481 -0.20258,-0.723591 c 0.75496,0.459039 1.36073,0.542218 2.19643,0.308246 0.87646,-0.245381 1.47817,-0.765529 1.81247,-1.573489 0.27396,-0.670175 0.31149,-1.43901 0.10035,-2.193174 -0.47936,-1.712159 -2.0488,-2.646543 -3.67942,-2.190019 -0.74398,0.208292 -1.16591,0.546224 -1.55034,1.214356 l -0.67338,-2.405175 -1.35546,0.379488 z m 1.62506,-5.42256 c 0.96819,-0.271064 1.87682,0.265844 2.16215,1.284985 0.29104,1.039525 -0.18471,1.931047 -1.1529,2.202111 -0.98857,0.276769 -1.87398,-0.255652 -2.16216,-1.284984 -0.28533,-1.019142 0.19491,-1.933903 1.15291,-2.202112 z"
         style="font-weight:600;font-family:'URW Gothic';-inkscape-font-specification:'URW Gothic Semi-Bold';fill:#ffe680"
         id="path29623" />
      <path
         d="m 354.98057,-28.596113 0.25679,0.917227 5.09571,-1.426643 -0.2568,-0.917227 z"
         style="font-weight:600;font-family:'URW Gothic';-inkscape-font-specification:'URW Gothic Semi-Bold'"
         id="path29625" />
      <path
         d="m 360.44686,-30.818894 1.35545,-0.379485 -1.58072,-5.646045 -1.35545,0.379485 z m -1.75192,-6.25753 1.35545,-0.379485 -0.35666,-1.273928 -1.35545,0.379485 z"
         style="font-weight:600;font-family:'URW Gothic';-inkscape-font-specification:'URW Gothic Semi-Bold'"
         id="path29627" />
      <path
         d="m 362.89278,-31.503679 1.35546,-0.379488 -0.7447,-2.659959 c -0.21115,-0.754166 -0.25151,-1.094553 -0.15527,-1.418233 0.11986,-0.396236 0.41501,-0.676693 0.85324,-0.799384 0.35669,-0.09986 0.6661,-0.05461 0.91517,0.128438 0.25193,0.193234 0.45044,0.588255 0.66159,1.342421 l 0.77324,2.761873 1.35546,-0.379487 -0.84743,-3.026851 c -0.28247,-1.008951 -0.52134,-1.469606 -0.94978,-1.822238 -0.51526,-0.427236 -1.20664,-0.541397 -1.99137,-0.321695 -0.65226,0.182612 -1.03913,0.488748 -1.40155,1.117747 l -0.15123,-0.540145 -1.25355,0.350955 z"
         style="font-weight:600;font-family:'URW Gothic';-inkscape-font-specification:'URW Gothic Semi-Bold';fill:#ffdd55"
         id="path29629" />
      <path
         d="m 372.53434,-36.203247 c -0.1908,0.613922 -0.51531,0.946559 -1.07583,1.103489 -0.93761,0.262501 -1.84626,-0.274403 -2.12303,-1.26297 -0.27962,-0.99876 0.18595,-1.887432 1.13375,-2.152786 0.61149,-0.171197 1.11086,-0.03625 1.53155,0.406472 l 1.5287,-0.427991 c -0.35342,-0.516507 -0.61961,-0.760699 -1.10674,-1.008976 -0.693,-0.355493 -1.51687,-0.432563 -2.30161,-0.212858 -1.67139,0.467939 -2.61353,2.127468 -2.14844,3.78867 0.45938,1.640818 2.17271,2.578879 3.84412,2.110937 1.32487,-0.370925 2.13124,-1.376992 2.24624,-2.771978 z"
         style="font-weight:600;font-family:'URW Gothic';-inkscape-font-specification:'URW Gothic Semi-Bold';fill:#ff7f2a"
         id="path29631" />
      <path
         d="m 375.5913,-35.058876 1.35546,-0.379488 -0.36522,-1.304502 -1.35546,0.379488 z"
         style="font-weight:600;font-family:'URW Gothic';-inkscape-font-specification:'URW Gothic Semi-Bold'"
         id="path29633" />
    </g>
  </g>
</svg>
